<svg xmlns="http://www.w3.org/2000/svg" viewBox="0 0 500 500"><defs><style>.cls-1{fill:#fff;}.cls-2,.cls-3{fill:#002d54;}.cls-3{font-size:25.71px;font-family:Danube;}</style></defs><g id="BG"><rect class="cls-1" width="500" height="500"/></g><g id="Layer_2" data-name="Layer 2"><path class="cls-2" d="M177,160.43v21.3a6.67,6.67,0,0,1-6.66,6.67v16A6.67,6.67,0,0,1,177,211.1v21.3a22.73,22.73,0,0,0,22.7,22.7h18.41v-16H199.65A6.67,6.67,0,0,1,193,232.4V211.1a22.57,22.57,0,0,0-5.41-14.68A22.62,22.62,0,0,0,193,181.73v-21.3a6.67,6.67,0,0,1,6.67-6.67h2.59v-16h-2.59A22.72,22.72,0,0,0,177,160.43Z"/><path class="cls-2" d="M336.05,181.73v-21.3a22.72,22.72,0,0,0-22.69-22.69h-2.6v16h2.6a6.67,6.67,0,0,1,6.66,6.67v21.3a22.62,22.62,0,0,0,5.41,14.69A22.57,22.57,0,0,0,320,211.1v21.3a6.67,6.67,0,0,1-6.66,6.67h-2.6v16h2.6a22.73,22.73,0,0,0,22.69-22.7V211.1a6.67,6.67,0,0,1,6.67-6.67v-16A6.67,6.67,0,0,1,336.05,181.73Z"/><rect class="cls-2" x="291.4" y="154.6" width="15.98" height="15.98"/><rect class="cls-2" x="276.79" y="139.99" width="12.72" height="12.72"/><rect class="cls-2" x="289.51" y="130.12" width="7.8" height="7.8"/><rect class="cls-2" x="282.34" y="122.71" width="6.01" height="6.01"/><path class="cls-2" d="M295.89,169.19v85.89H279.57l-42.82-52.14v52.14H217.11V169.19h16.45l42.7,52.15V169.19Z"/><text class="cls-3" transform="translate(167.94 288.53)">NV STODIO</text></g></svg>